<?xml version="1.0" encoding="UTF-8" standalone="no"?>
<svg
   xmlns:dc="http://purl.org/dc/elements/1.1/"
   xmlns:cc="http://creativecommons.org/ns#"
   xmlns:rdf="http://www.w3.org/1999/02/22-rdf-syntax-ns#"
   xmlns:svg="http://www.w3.org/2000/svg"
   xmlns="http://www.w3.org/2000/svg"
   xmlns:sodipodi="http://sodipodi.sourceforge.net/DTD/sodipodi-0.dtd"
   xmlns:inkscape="http://www.inkscape.org/namespaces/inkscape"
   inkscape:export-ydpi="96"
   inkscape:export-xdpi="96"
   inkscape:export-filename="C:\Users\pablo\Desktop\carteiranet_logo.png"
   width="105.58775mm"
   height="16.928772mm"
   viewBox="0 0 105.58775 16.928772"
   version="1.1"
   id="svg872"
   inkscape:version="1.0 (4035a4fb49, 2020-05-01)"
   sodipodi:docname="carteiranet_logo.svg">
  <defs
     id="defs866" />
  <sodipodi:namedview
     id="base"
     pagecolor="#ffffff"
     bordercolor="#666666"
     borderopacity="1.0"
     inkscape:pageopacity="0.0"
     inkscape:pageshadow="2"
     inkscape:zoom="1.4"
     inkscape:cx="120.79602"
     inkscape:cy="-20.638937"
     inkscape:document-units="mm"
     inkscape:current-layer="layer1"
     inkscape:document-rotation="0"
     showgrid="false"
     inkscape:window-width="1920"
     inkscape:window-height="1017"
     inkscape:window-x="-8"
     inkscape:window-y="-8"
     inkscape:window-maximized="1" />
  <metadata
     id="metadata869">
    <rdf:RDF>
      <cc:Work
         rdf:about="">
        <dc:format>image/svg+xml</dc:format>
        <dc:type
           rdf:resource="http://purl.org/dc/dcmitype/StillImage" />
        <dc:title />
      </cc:Work>
    </rdf:RDF>
  </metadata>
  <g
     transform="translate(-39.697889,-101.53556)"
     inkscape:label="Layer 1"
     inkscape:groupmode="layer"
     id="layer1">
    <g
       id="g852">
      <g
         id="g842">
        <path
           id="path1287"
           fill="#1428bf"
           d="m 53.824568,106.34218 c 0.31716,0 0.574253,-0.25709 0.574253,-0.57425 v -0.60297 c 0,-1.58442 -1.289055,-2.87345 -2.873479,-2.87345 0,0 -9.001654,10e-4 -9.023849,0.004 -0.757699,0.0265 -1.485536,0.35162 -2.010175,0.90135 -0.53776,0.56346 -0.81811,1.29632 -0.791723,2.0674 -0.0011,0.0146 -0.0016,8.28266 -0.0016,8.28266 0,1.90107 1.546637,3.44771 3.447703,3.44771 h 8.379738 c 1.584423,0 2.87345,-1.28903 2.87345,-2.87346 v -4.35995 c 0,-1.58443 -1.289027,-2.87346 -2.87345,-2.87346 h -8.95622 c -0.921993,0 -1.677883,-0.72063 -1.720866,-1.64058 -0.02185,-0.46779 0.146435,-0.91433 0.473817,-1.25738 0.332119,-0.348 0.798557,-0.54756 1.279667,-0.54756 0.01697,0 8.923527,-0.002 8.923527,-0.002 0.951136,0 1.724943,0.77381 1.724943,1.72495 v 0.60296 c 5.7e-5,0.31716 0.257151,0.57426 0.574311,0.57426 z m -11.255399,1.69405 h 8.956173 c 0.951137,0 1.724943,0.77381 1.724943,1.72494 v 4.35996 c 0,0.95114 -0.773806,1.72495 -1.724943,1.72495 h -8.379709 c -1.267779,0 -2.299196,-1.03142 -2.299196,-2.2992 v -6.08258 c 0.480306,0.35977 1.077099,0.57193 1.722732,0.57193 z"
           style="fill:#023047;fill-opacity:1;stroke-width:0.0287127" />
        <path
           id="path1289"
           fill="#df5cf0"
           d="m 52.101807,111.94115 c 0,0.39644 -0.321381,0.71782 -0.717817,0.71782 -0.396436,0 -0.717817,-0.32138 -0.717817,-0.71782 0,-0.39644 0.321381,-0.71781 0.717817,-0.71781 0.396436,0 0.717817,0.32137 0.717817,0.71781 z m 0,-6.77619 c 0,-0.31716 -0.257093,-0.57425 -0.574254,-0.57425 h -8.958355 c -0.317161,0 -0.574254,0.25709 -0.574254,0.57425 0,0.31716 0.257093,0.57426 0.574254,0.57426 h 8.958355 c 0.317132,0 0.574254,-0.2571 0.574254,-0.57426 z"
           style="fill:#fb8500;fill-opacity:1;stroke-width:0.0287127" />
      </g>
      <text
         xml:space="preserve"
         style="font-style:normal;font-variant:normal;font-weight:normal;font-stretch:normal;font-size:18.9242px;line-height:1.25;font-family:'Franklin Gothic Medium';-inkscape-font-specification:'Franklin Gothic Medium, Normal';font-variant-ligatures:normal;font-variant-caps:normal;font-variant-numeric:normal;font-variant-east-asian:normal;letter-spacing:0px;word-spacing:0px;fill:#023047;fill-opacity:1;stroke:none;stroke-width:0.473104"
         x="53.114235"
         y="115.96149"
         id="text1306"><tspan
           sodipodi:role="line"
           id="tspan1304"
           x="53.114235"
           y="115.96149"
           style="font-style:normal;font-variant:normal;font-weight:normal;font-stretch:normal;font-size:18.9242px;font-family:'Franklin Gothic Medium';-inkscape-font-specification:'Franklin Gothic Medium, Normal';font-variant-ligatures:normal;font-variant-caps:normal;font-variant-numeric:normal;font-variant-east-asian:normal;fill:#023047;fill-opacity:1;stroke-width:0.473104">Carteira</tspan></text>
      <text
         xml:space="preserve"
         style="font-style:normal;font-variant:normal;font-weight:normal;font-stretch:normal;font-size:19.3005px;line-height:1.25;font-family:'Franklin Gothic Medium';-inkscape-font-specification:'Franklin Gothic Medium, Normal';font-variant-ligatures:normal;font-variant-caps:normal;font-variant-numeric:normal;font-variant-east-asian:normal;letter-spacing:0px;word-spacing:0px;fill:#fb8500;fill-opacity:1;stroke:none;stroke-width:0.482516"
         x="115.16652"
         y="115.98584"
         id="text1310"><tspan
           sodipodi:role="line"
           id="tspan1308"
           x="115.16652"
           y="115.98584"
           style="font-style:normal;font-variant:normal;font-weight:normal;font-stretch:normal;font-size:19.3005px;font-family:'Franklin Gothic Medium';-inkscape-font-specification:'Franklin Gothic Medium, Normal';font-variant-ligatures:normal;font-variant-caps:normal;font-variant-numeric:normal;font-variant-east-asian:normal;fill:#fb8500;fill-opacity:1;stroke-width:0.482516">net</tspan></text>
      <path
         id="path1285-0"
         fill="#cee1f2"
         d="m 135.83301,116.66746 h -20.25686 c -0.80242,0.98819 -3.54316,1.72916 -6.86105,1.79187 l 0.0159,0.005 h 27.10182 c 5.2207,0 9.45282,-1.34173 9.45282,-2.99681 v -1.79672 c 0,1.65508 -4.23212,2.99681 -9.45282,2.99681 z"
         style="fill:#fb8500;fill-opacity:1;stroke-width:0.053184" />
    </g>
  </g>
</svg>
